<?xml version="1.0" standalone="no"?>
<!DOCTYPE svg PUBLIC "-//W3C//DTD SVG 20010904//EN"
 "http://www.w3.org/TR/2001/REC-SVG-20010904/DTD/svg10.dtd">
<svg version="1.0" xmlns="http://www.w3.org/2000/svg"
 width="3508.000000pt" height="1374.000000pt" viewBox="0 0 3508.000000 1374.000000"
 preserveAspectRatio="xMidYMid meet">

<g transform="translate(0.000000,1374.000000) scale(0.100000,-0.100000)"
fill="#ffffff" stroke="none">
<path d="M30960 10963 c-726 -73 -1278 -348 -1569 -784 -256 -382 -332 -940
-190 -1387 162 -507 621 -925 1284 -1167 186 -68 1069 -431 1190 -489 78 -37
131 -81 161 -132 23 -40 27 -58 27 -115 -2 -136 -57 -225 -157 -254 -27 -8
-58 -15 -68 -15 -17 0 -18 -30 -18 -711 l0 -711 93 7 c146 11 334 41 471 75
691 170 1140 544 1310 1090 62 202 71 266 71 535 0 225 -2 247 -27 352 -97
406 -340 732 -748 1005 -141 94 -397 220 -605 297 -93 35 -294 115 -445 178
-151 64 -378 158 -504 210 -227 93 -286 125 -338 180 -58 61 -73 150 -42 254
29 98 90 152 189 166 l45 6 0 708 0 709 -47 -2 c-27 0 -64 -3 -83 -5z"/>
<path d="M31620 10258 l1 -713 475 -452 c262 -249 479 -453 483 -453 7 0 860
807 1029 974 l62 61 -58 90 c-305 468 -762 821 -1342 1038 -189 70 -434 136
-607 161 l-43 6 0 -712z"/>
<path d="M12685 10893 c-96 -8 -329 -45 -430 -68 -441 -100 -881 -313 -1240
-600 -125 -99 -336 -310 -437 -435 -248 -309 -440 -690 -539 -1069 -158 -609
-94 -1274 177 -1850 237 -503 650 -955 1139 -1248 296 -178 634 -309 972 -378
137 -28 343 -55 415 -55 l48 0 0 705 0 705 -26 0 c-42 0 -214 37 -300 65 -115
38 -290 124 -396 197 -193 131 -391 361 -483 561 -140 303 -164 641 -69 957
148 489 596 880 1129 984 44 8 94 17 110 18 l30 3 3 758 2 757 -32 -2 c-18 -1
-51 -3 -73 -5z"/>
<path d="M13132 10144 l3 -757 108 -19 c305 -51 590 -199 812 -422 216 -217
347 -471 392 -760 19 -130 12 -355 -16 -476 -111 -485 -474 -875 -969 -1040
-67 -22 -169 -48 -227 -58 l-105 -17 0 -702 0 -703 49 0 c180 0 547 75 810
165 438 150 819 390 1151 724 572 575 852 1294 819 2101 -30 719 -369 1430
-919 1927 -509 460 -1124 724 -1838 788 l-72 7 2 -758z"/>
<path d="M19355 10893 c-1063 -95 -1995 -720 -2445 -1638 -195 -398 -280 -764
-280 -1206 -1 -333 41 -595 141 -888 140 -409 361 -761 674 -1077 335 -338
715 -578 1156 -729 263 -90 630 -165 810 -165 l49 0 0 703 0 702 -105 17
c-137 22 -323 85 -453 153 -387 202 -658 552 -748 965 -26 119 -26 400 -1 518
61 277 180 496 382 698 222 223 507 371 812 422 l108 19 3 756 2 757 -32 -2
c-18 -1 -51 -3 -73 -5z"/>
<path d="M19802 10143 l3 -758 30 -3 c206 -20 477 -121 676 -253 121 -81 314
-273 390 -389 157 -238 229 -475 229 -750 0 -366 -136 -688 -404 -955 -212
-211 -453 -342 -756 -411 -58 -13 -120 -24 -137 -24 l-33 0 0 -705 0 -705 48
0 c26 0 103 7 170 15 594 74 1151 314 1602 693 128 107 337 325 433 450 476
622 671 1386 547 2138 -45 275 -121 508 -249 769 -148 299 -308 523 -546 760
-510 510 -1180 816 -1928 880 l-77 7 2 -759z"/>
<path d="M1400 7955 l0 -2835 775 0 775 0 0 2835 0 2835 -775 0 -775 0 0
-2835z"/>
<path d="M3190 10093 l0 -700 49 -6 c95 -11 184 -74 225 -160 36 -72 42 -131
22 -200 -32 -110 -119 -188 -235 -210 l-61 -12 0 -732 0 -733 83 0 c244 -1
426 -119 482 -315 24 -81 16 -194 -18 -269 -49 -106 -166 -203 -287 -237 -25
-7 -92 -15 -150 -18 l-105 -6 0 -690 0 -690 335 -3 c367 -3 514 6 683 42 603
129 1011 503 1161 1064 53 198 61 282 60 617 0 331 -11 451 -59 691 -87 431
-277 719 -522 790 l-54 16 35 46 c50 69 93 160 120 256 96 330 82 920 -30
1255 -191 574 -689 856 -1576 897 l-158 7 0 -700z"/>
<path d="M6210 7965 l0 -2825 775 0 775 0 0 2825 0 2825 -775 0 -775 0 0
-2825z"/>
<path d="M23520 10214 l0 -576 1202 -1529 c661 -841 1206 -1528 1211 -1526 5
1 542 689 1193 1527 l1183 1525 1 578 0 577 -492 0 -493 0 -694 -895 c-382
-492 -697 -895 -701 -895 -4 0 -324 403 -710 895 l-703 895 -499 0 -498 0 0
-576z"/>
<path d="M23520 7062 l0 -1922 775 0 775 0 0 913 0 912 -761 995 c-418 547
-767 1002 -774 1010 -13 12 -15 -228 -15 -1908z"/>
<path d="M28161 8798 c-77 -101 -423 -554 -770 -1008 l-631 -825 0 -912 0
-913 775 0 775 0 0 1920 c0 1056 -2 1920 -5 1920 -2 0 -67 -82 -144 -182z"/>
<path d="M29581 7015 c-504 -481 -540 -518 -530 -538 29 -55 155 -231 227
-317 346 -414 871 -732 1467 -890 84 -22 317 -70 342 -70 2 0 3 321 2 713 l0
712 -473 449 c-260 248 -478 452 -484 454 -6 2 -254 -229 -551 -513z"/>
<path d="M8000 5925 l0 -785 1030 0 1030 0 0 785 0 785 -1030 0 -1030 0 0
-785z"/>
<path d="M1400 4655 l0 -145 12655 0 12655 0 0 -875 0 -875 145 0 145 0 2 468
3 467 553 3 552 2 0 -470 0 -470 145 0 145 0 0 1020 0 1020 -145 0 -145 0 0
-425 0 -425 -552 2 -553 3 -3 423 -2 422 -12800 0 -12800 0 0 -145z"/>
<path d="M29183 3797 c-254 -551 -465 -1010 -469 -1020 -6 -16 4 -17 162 -15
l169 3 105 250 106 250 509 0 509 0 106 -250 107 -250 170 -3 171 -2 -457
1017 -457 1018 -134 2 -135 3 -462 -1003z m790 171 l195 -458 -404 0 -404 0 9
23 c5 12 91 211 191 442 100 231 186 431 191 444 6 14 13 20 18 15 5 -5 97
-215 204 -466z"/>
<path d="M31130 3780 l0 -1020 145 0 145 0 0 1020 0 1020 -145 0 -145 0 0
-1020z"/>
<path d="M31990 3781 l0 -1021 145 0 145 0 0 450 0 450 163 0 163 0 261 -432
c144 -238 268 -441 275 -451 12 -16 30 -17 190 -15 l177 3 -299 459 c-165 253
-298 461 -296 463 2 3 34 11 70 18 186 39 350 178 416 352 46 120 33 315 -28
443 -38 78 -140 177 -227 220 -151 73 -156 74 -682 78 l-473 3 0 -1020z m844
764 c194 -34 286 -134 286 -310 0 -132 -44 -217 -138 -268 -96 -52 -145 -59
-434 -64 l-268 -5 0 331 0 331 238 0 c158 -1 263 -5 316 -15z"/>
</g>
</svg>
